<svg width="100" height="103" viewBox="0 0 100 103" fill="none" xmlns="http://www.w3.org/2000/svg">
<rect y="1" width="100" height="100" fill="black"/>
<path d="M71.3322 33.939L53.1072 32.157L52.3782 54.837L52.6212 81.162L48.0852 82.296C46.6812 81.594 45.2502 80.649 43.7922 79.461C42.3342 78.219 41.1462 76.734 40.2282 75.006L44.0352 53.784L43.3872 32.562L30.5892 34.506C29.2392 33.642 28.0782 32.751 27.1062 31.833C26.1342 30.915 25.1082 29.754 24.0282 28.35L25.5672 23.652L48.8952 24.3L66.3102 23.004C68.0382 24.192 69.4152 25.299 70.4412 26.325C71.4672 27.297 72.3312 28.296 73.0332 29.322L71.3322 33.939Z" fill="white"/>
<path d="M73.767 36.939L55.542 35.157L54.813 57.837L55.056 84.162L50.52 85.296C49.116 84.594 47.685 83.649 46.227 82.461C44.769 81.219 43.581 79.734 42.663 78.006L46.47 56.784L45.822 35.562L33.024 37.506C31.674 36.642 30.513 35.751 29.541 34.833C28.569 33.915 27.543 32.754 26.463 31.35L28.002 26.652L51.33 27.3L68.745 26.004C70.473 27.192 71.85 28.299 72.876 29.325C73.902 30.297 74.766 31.296 75.468 32.322L73.767 36.939Z" fill="#00F2EA" fill-opacity="0.5"/>
<path d="M69.709 30.939L51.484 29.157L50.755 51.837L50.998 78.162L46.462 79.296C45.058 78.594 43.627 77.649 42.169 76.461C40.711 75.219 39.523 73.734 38.605 72.006L42.412 50.784L41.764 29.562L28.966 31.506C27.616 30.642 26.455 29.751 25.483 28.833C24.511 27.915 23.485 26.754 22.405 25.35L23.944 20.652L47.272 21.3L64.687 20.004C66.415 21.192 67.792 22.299 68.818 23.325C69.844 24.297 70.708 25.296 71.41 26.322L69.709 30.939Z" fill="#FF0050" fill-opacity="0.5"/>
</svg>
